<?xml version="1.0" standalone="no"?>
<!DOCTYPE svg PUBLIC "-//W3C//DTD SVG 20010904//EN"
 "http://www.w3.org/TR/2001/REC-SVG-20010904/DTD/svg10.dtd">
<svg version="1.0" id = "clover2" xmlns="http://www.w3.org/2000/svg"
 width="1244.000000pt" height="1280.000000pt" viewBox="0 0 1244.000000 1280.000000"
 preserveAspectRatio="xMidYMid meet">
<metadata>
Created by potrace 1.15, written by Peter Selinger 2001-2017
</metadata>
<g transform="translate(0.000000,1280.000000) scale(0.100000,-0.100000)"
fill="#4caf50" stroke="none">
<path d="M7145 12118 c-55 -5 -101 -13 -103 -19 -5 -12 -69 -12 -77 1 -3 6
-24 10 -46 10 -21 0 -39 -4 -39 -10 0 -5 -25 -10 -55 -10 -48 0 -55 -2 -55
-20 0 -16 -7 -20 -30 -20 -16 0 -30 -4 -30 -10 0 -5 -17 -10 -38 -10 -26 0
-42 -6 -52 -20 -8 -12 -26 -20 -42 -20 -15 0 -28 -4 -28 -10 0 -5 -13 -10 -30
-10 -23 0 -30 -4 -30 -20 0 -16 -7 -20 -30 -20 -16 0 -30 -4 -30 -10 0 -5 -9
-10 -20 -10 -11 0 -20 -4 -20 -10 0 -5 -8 -10 -18 -10 -10 0 -24 -9 -32 -20
-8 -11 -22 -20 -32 -20 -10 0 -18 -4 -18 -10 0 -5 -13 -10 -30 -10 -23 0 -30
-4 -30 -20 0 -13 -7 -20 -20 -20 -11 0 -20 -4 -20 -10 0 -5 -13 -10 -30 -10
-16 0 -30 -4 -30 -10 0 -5 5 -10 10 -10 6 0 10 -4 10 -10 0 -5 -9 -10 -20 -10
-11 0 -20 -4 -20 -10 0 -5 -9 -10 -20 -10 -13 0 -20 -7 -20 -20 0 -13 -7 -20
-20 -20 -11 0 -20 -4 -20 -10 0 -5 -13 -10 -30 -10 -23 0 -30 -4 -30 -20 0
-13 -7 -20 -20 -20 -17 0 -20 -7 -20 -50 0 -27 -4 -50 -10 -50 -15 0 -12 -50
5 -66 19 -20 8 -44 -21 -44 -21 0 -24 -5 -24 -35 0 -19 -4 -35 -10 -35 -5 0
-10 -19 -10 -43 0 -31 -5 -46 -20 -57 -15 -11 -20 -26 -20 -60 0 -34 -5 -49
-20 -60 -17 -12 -20 -26 -20 -92 0 -51 4 -78 11 -78 7 0 9 -12 6 -32 -4 -18
-9 -49 -12 -68 -13 -73 -16 -80 -33 -80 -15 0 -17 -7 -14 -41 3 -26 0 -44 -8
-49 -8 -5 -13 -29 -13 -63 1 -41 -3 -57 -14 -61 -8 -4 -13 -13 -10 -20 3 -8
-1 -17 -9 -20 -13 -5 -15 -22 -12 -91 3 -79 -2 -100 -17 -75 -3 5 -12 7 -20 4
-8 -4 -13 -9 -10 -13 2 -4 5 -24 7 -44 1 -24 7 -37 16 -37 11 0 13 -12 8 -52
-12 -116 -18 -153 -27 -162 -5 -6 -9 -20 -9 -33 0 -13 -8 -27 -17 -30 -37 -14
-43 -31 -43 -113 0 -59 4 -86 15 -96 21 -21 19 -40 -7 -61 -22 -17 -23 -25
-21 -131 1 -92 -2 -114 -13 -119 -9 -3 -13 -12 -10 -20 3 -7 0 -16 -7 -19 -10
-4 -13 -36 -10 -142 6 -290 6 -341 -2 -462 -7 -105 -11 -127 -26 -138 -15 -10
-19 -26 -19 -73 0 -38 -4 -58 -10 -54 -5 3 -10 14 -10 23 0 10 -9 24 -20 32
-11 8 -20 22 -20 32 0 10 -4 18 -10 18 -5 0 -10 7 -10 15 0 8 -9 20 -20 27
-11 7 -20 21 -20 31 0 11 -13 32 -30 47 -16 15 -30 37 -30 49 0 12 -6 21 -15
21 -8 0 -15 8 -15 18 0 10 -9 24 -20 32 -11 8 -20 21 -20 30 0 9 -9 22 -20 30
-11 8 -20 21 -20 30 0 9 -9 22 -20 30 -11 8 -20 22 -20 32 0 10 -5 18 -12 18
-6 0 -9 3 -5 6 6 7 -37 54 -50 54 -5 0 -16 18 -26 40 -9 22 -24 40 -33 40 -10
0 -14 7 -12 24 3 28 -18 56 -43 56 -12 0 -19 7 -19 20 0 11 -9 25 -19 32 -10
6 -17 17 -15 23 3 6 -4 20 -16 30 -11 10 -20 23 -20 30 0 7 -9 20 -20 30 -11
10 -20 23 -20 30 0 6 -16 18 -35 25 -48 19 -59 34 -57 81 2 34 -3 46 -28 69
-17 15 -30 35 -30 44 0 9 -8 16 -20 16 -16 0 -20 7 -20 30 0 21 -5 30 -16 30
-19 0 -44 24 -44 42 0 8 -9 20 -20 28 -11 8 -20 22 -20 32 0 10 -7 18 -16 18
-19 0 -44 24 -44 42 0 8 -9 20 -20 28 -11 8 -20 20 -20 28 0 18 -25 42 -44 42
-9 0 -16 8 -16 18 0 10 -9 24 -20 32 -11 8 -20 20 -20 28 0 18 -25 42 -44 42
-9 0 -16 7 -16 16 0 9 -14 29 -30 44 -17 16 -29 34 -28 41 2 7 -6 15 -16 17
-23 5 -47 27 -44 40 2 6 -6 18 -18 28 -11 11 -23 27 -27 37 -4 9 -18 22 -33
27 -16 7 -24 15 -21 25 4 9 -5 19 -24 27 -16 7 -29 20 -29 28 0 9 -9 22 -20
30 -11 8 -20 22 -20 32 0 11 -7 18 -20 18 -11 0 -20 5 -20 10 0 15 -47 12 -53
-2 -4 -9 -6 -8 -6 2 -1 8 -15 24 -31 35 -24 16 -30 27 -30 58 0 27 -4 37 -16
37 -9 0 -29 14 -44 30 -15 17 -33 30 -40 30 -7 0 -25 14 -40 30 -15 17 -35 30
-44 30 -9 0 -16 5 -16 10 0 6 -8 10 -18 10 -10 0 -24 9 -32 20 -8 11 -22 20
-32 20 -10 0 -18 5 -18 10 0 6 -8 10 -18 10 -10 0 -24 9 -32 20 -15 20 -60 28
-60 10 0 -5 -7 -10 -15 -10 -8 0 -14 3 -14 8 4 24 -4 32 -31 32 -24 0 -30 4
-28 18 3 14 -6 17 -59 20 -35 2 -63 7 -63 12 0 6 -78 10 -195 10 -123 0 -195
-4 -195 -10 0 -5 -22 -10 -48 -10 -36 0 -51 -5 -62 -20 -8 -12 -26 -20 -42
-20 -15 0 -28 -4 -28 -10 0 -5 -13 -10 -30 -10 -27 0 -30 -3 -30 -30 0 -27 -3
-30 -34 -30 -28 0 -36 -5 -46 -30 -8 -18 -20 -30 -31 -30 -11 0 -19 -4 -19
-10 0 -5 -8 -10 -19 -10 -11 0 -23 -12 -31 -30 -7 -17 -20 -30 -30 -30 -10 0
-23 -13 -30 -30 -7 -16 -20 -30 -29 -30 -15 0 -33 -24 -70 -88 -7 -14 -22 -27
-32 -29 -13 -4 -19 -14 -19 -34 0 -16 -4 -29 -10 -29 -5 0 -10 -13 -10 -30 0
-23 -4 -30 -20 -30 -16 0 -20 -7 -20 -30 0 -23 -4 -30 -20 -30 -15 0 -20 -7
-20 -25 0 -14 -4 -25 -10 -25 -5 0 -10 -17 -10 -38 0 -26 -6 -42 -20 -52 -14
-10 -20 -26 -20 -52 0 -21 -4 -38 -10 -38 -5 0 -10 -18 -10 -40 0 -22 -4 -40
-10 -40 -5 0 -10 -9 -10 -20 0 -11 -4 -20 -10 -20 -6 0 -10 -27 -10 -60 0 -33
-4 -60 -10 -60 -5 0 -10 -9 -10 -21 0 -11 5 -17 10 -14 6 4 10 -5 10 -19 0
-22 -4 -26 -30 -26 l-30 0 0 -110 c0 -67 -4 -110 -10 -110 -6 0 -10 -45 -10
-115 0 -70 4 -115 10 -115 6 0 10 -27 10 -60 0 -53 2 -60 20 -60 18 0 20 -7
20 -58 l0 -58 -50 -14 c-28 -7 -50 -17 -50 -22 0 -4 -13 -8 -30 -8 -16 0 -30
-4 -30 -10 0 -5 -13 -10 -30 -10 -16 0 -30 5 -30 10 0 18 -35 11 -50 -10 -8
-12 -26 -20 -42 -20 -15 0 -28 -4 -28 -10 0 -5 -13 -10 -30 -10 -16 0 -30 -4
-30 -10 0 -5 -20 -10 -45 -10 -38 0 -45 -3 -45 -20 0 -14 -7 -20 -21 -20 -21
0 -59 -34 -59 -52 0 -4 -9 -8 -21 -8 -11 0 -17 -4 -14 -10 4 -6 -5 -10 -19
-10 -14 0 -26 -4 -26 -10 0 -5 -9 -10 -20 -10 -11 0 -20 -4 -20 -10 0 -5 -9
-10 -20 -10 -11 0 -20 -4 -20 -10 0 -5 -9 -10 -20 -10 -11 0 -20 -4 -20 -10 0
-5 -9 -10 -20 -10 -11 0 -20 -4 -20 -9 0 -5 -14 -14 -31 -21 -17 -7 -58 -30
-90 -52 -33 -21 -64 -38 -69 -38 -6 0 -10 -4 -10 -9 0 -5 -8 -12 -17 -15 -10
-3 -29 -16 -43 -28 -14 -13 -51 -41 -82 -62 -50 -34 -128 -110 -217 -209 -12
-15 -27 -25 -31 -22 -16 10 -60 -14 -60 -33 0 -24 -26 -76 -45 -92 -8 -7 -15
-23 -15 -36 0 -13 -4 -24 -10 -24 -5 0 -10 5 -10 10 0 6 -4 10 -10 10 -5 0
-10 -18 -10 -40 0 -22 -4 -40 -10 -40 -6 0 -10 -27 -10 -60 0 -33 -4 -60 -10
-60 -6 0 -10 -57 -10 -150 0 -93 4 -150 10 -150 6 0 10 -24 10 -54 0 -30 5
-58 10 -61 6 -3 10 -21 10 -39 0 -25 5 -35 20 -39 13 -3 20 -14 20 -30 0 -13
7 -30 15 -37 19 -16 45 -68 45 -90 0 -10 9 -20 20 -23 14 -3 20 -14 20 -31 0
-19 5 -26 20 -26 22 0 27 -16 8 -22 -21 -7 38 -58 67 -58 26 0 34 -14 13 -24
-10 -5 -10 -7 0 -12 6 -3 12 -14 12 -23 0 -24 33 -61 54 -61 9 0 16 -7 16 -16
0 -20 24 -44 44 -44 9 0 16 -7 16 -16 0 -20 24 -44 44 -44 9 0 16 -7 16 -16 0
-20 24 -44 44 -44 9 0 16 -8 16 -20 0 -12 7 -20 16 -20 9 0 25 -10 36 -22 13
-16 21 -19 26 -10 6 8 20 1 47 -23 22 -19 51 -38 65 -40 14 -3 39 -10 56 -15
17 -6 40 -10 52 -10 14 0 22 -6 22 -16 0 -10 5 -14 15 -10 9 3 18 -1 21 -9 4
-9 19 -15 39 -15 19 0 39 -8 50 -20 14 -15 31 -20 71 -20 29 0 56 -4 59 -10 3
-5 31 -10 61 -10 47 0 54 -2 54 -20 0 -18 7 -20 60 -20 33 0 60 4 60 10 0 13
77 13 85 0 3 -5 31 -10 61 -10 30 0 54 -4 54 -10 0 -5 13 -10 29 -10 51 0 131
-23 131 -37 0 -9 17 -13 60 -13 53 0 60 -2 60 -20 0 -18 7 -20 84 -20 47 0 88
-4 91 -10 3 -5 40 -10 81 -10 67 0 74 -2 74 -20 0 -19 7 -20 109 -20 63 0 112
-4 116 -10 3 -5 42 -10 87 -10 71 0 80 -2 85 -20 5 -18 14 -20 99 -20 76 0 95
3 102 17 7 11 15 14 28 8 11 -4 48 -11 84 -17 128 -18 140 -20 140 -29 0 -5 8
-9 18 -9 11 0 27 -9 37 -20 17 -18 31 -20 171 -20 113 0 153 -3 157 -12 3 -9
11 -6 25 10 19 22 26 23 148 21 89 -1 132 -6 141 -15 7 -7 13 -14 13 -17 0
-12 -40 -47 -54 -47 -9 0 -16 -4 -16 -9 0 -5 -8 -12 -19 -16 -10 -3 -31 -17
-47 -30 -16 -14 -35 -25 -41 -25 -7 0 -13 -4 -13 -9 0 -5 -13 -14 -30 -21 -16
-7 -30 -16 -30 -21 0 -14 -38 -11 -44 4 -5 10 -7 10 -12 0 -3 -7 -19 -13 -35
-13 -20 0 -29 -5 -29 -16 0 -26 -26 -44 -64 -44 -26 0 -36 -4 -36 -16 0 -23
-25 -44 -54 -44 -17 0 -26 -6 -26 -16 0 -23 -25 -44 -54 -44 -17 0 -26 -6 -26
-16 0 -18 -24 -44 -41 -44 -6 0 -19 -8 -28 -19 -9 -10 -37 -28 -63 -40 -26
-11 -50 -25 -53 -31 -3 -6 -26 -19 -51 -30 -25 -12 -42 -25 -38 -31 9 -16 -27
-38 -63 -39 -32 0 -45 -14 -21 -22 21 -7 -17 -38 -46 -38 -19 0 -26 -5 -26
-19 0 -10 -7 -22 -16 -25 -8 -3 -12 -11 -8 -17 7 -11 -58 -79 -77 -79 -5 0 -7
-4 -4 -10 4 -6 -10 -10 -34 -10 -23 0 -41 -4 -41 -10 0 -5 -13 -10 -30 -10
-23 0 -30 -4 -30 -20 0 -13 -7 -20 -20 -20 -11 0 -20 -4 -20 -10 0 -5 -9 -10
-20 -10 -13 0 -20 -7 -20 -20 0 -13 -7 -20 -20 -20 -11 0 -20 -4 -20 -10 0 -5
-9 -10 -20 -10 -12 0 -20 -7 -20 -16 0 -20 -24 -44 -44 -44 -9 0 -16 -8 -16
-20 0 -12 -7 -20 -18 -20 -9 0 -23 -9 -30 -20 -7 -11 -18 -20 -25 -20 -7 0
-26 -13 -42 -30 -16 -16 -37 -30 -47 -30 -11 0 -15 -5 -12 -14 5 -14 -45 -46
-73 -46 -8 0 -11 -5 -8 -11 9 -14 -24 -49 -46 -49 -12 0 -16 -5 -13 -15 4 -10
-7 -20 -35 -32 -23 -10 -41 -23 -41 -30 0 -7 -9 -13 -20 -13 -11 0 -20 -4 -20
-10 0 -5 -9 -10 -20 -10 -12 0 -20 -7 -20 -16 0 -20 -24 -44 -44 -44 -9 0 -16
-7 -16 -16 0 -20 -24 -44 -44 -44 -9 0 -16 -7 -16 -15 0 -20 -45 -65 -65 -65
-8 0 -15 -7 -15 -16 0 -8 -22 -37 -50 -64 -27 -27 -50 -54 -50 -60 0 -7 -14
-25 -31 -41 -32 -30 -34 -59 -4 -59 8 0 15 -4 15 -10 0 -5 -4 -10 -8 -10 -5 0
-14 -11 -20 -24 -6 -14 -18 -23 -29 -23 -13 2 -19 -6 -21 -25 -2 -16 -8 -28
-13 -28 -5 0 -9 -8 -9 -18 0 -10 -9 -24 -20 -32 -15 -11 -20 -26 -20 -62 0
-41 -3 -48 -20 -48 -18 0 -20 -7 -20 -60 0 -37 -4 -60 -11 -60 -7 0 -9 -14 -6
-38 14 -95 39 -230 49 -262 12 -35 12 -80 2 -112 -4 -13 0 -18 16 -18 12 0 18
-5 15 -10 -3 -6 -1 -10 5 -10 7 0 10 -7 6 -15 -8 -21 3 -45 21 -45 22 0 44
-26 37 -44 -4 -10 -1 -16 8 -16 7 0 20 -9 28 -20 8 -11 20 -20 28 -20 7 0 24
-11 38 -25 14 -14 28 -25 32 -25 4 0 28 -20 55 -45 26 -25 47 -42 47 -39 0 3
7 -1 15 -8 33 -30 45 -38 55 -38 16 0 80 -67 80 -85 0 -8 9 -15 20 -15 11 0
20 -4 20 -10 0 -5 14 -10 30 -10 24 0 30 -4 28 -18 -2 -13 5 -18 30 -20 17 -2
32 -7 32 -13 0 -5 18 -9 41 -9 32 0 40 -3 35 -15 -5 -13 13 -15 124 -15 123 0
130 -1 130 -20 0 -21 14 -26 88 -33 24 -3 49 -10 55 -16 14 -14 309 -15 322
-2 16 16 305 19 305 4 0 -9 21 -13 70 -13 40 0 70 4 70 10 0 6 33 10 80 10
l80 0 0 -28 c0 -16 8 -34 20 -42 12 -8 20 -26 20 -42 0 -15 5 -28 10 -28 6 0
10 -13 10 -30 0 -23 4 -30 20 -30 16 0 20 -7 20 -30 0 -16 5 -30 10 -30 6 0
10 -8 10 -18 0 -10 9 -24 20 -32 12 -8 20 -26 20 -42 0 -21 5 -28 20 -28 15 0
20 -7 20 -26 0 -29 21 -54 44 -54 11 0 16 -9 16 -30 0 -16 5 -30 10 -30 6 0
10 -7 10 -16 0 -8 18 -33 40 -54 22 -21 40 -46 40 -54 0 -9 5 -16 10 -16 6 0
10 -9 10 -20 0 -16 7 -20 33 -20 25 0 37 -7 55 -34 12 -18 20 -40 16 -49 -3
-10 2 -21 15 -29 12 -7 21 -23 21 -35 0 -17 6 -23 21 -23 14 0 24 -10 32 -30
7 -17 19 -30 28 -30 10 0 23 -13 31 -30 7 -16 20 -30 30 -30 9 0 22 -13 30
-30 7 -16 19 -30 25 -30 7 0 13 -4 13 -10 0 -5 9 -10 20 -10 13 0 20 -7 20
-20 0 -13 7 -20 19 -20 11 0 23 -5 27 -11 5 -8 9 -8 14 1 9 14 45 -2 71 -32 9
-10 24 -18 33 -18 9 0 16 -4 16 -10 0 -5 9 -10 20 -10 11 0 20 -4 20 -10 0 -5
7 -10 15 -10 8 0 15 -4 15 -10 0 -5 12 -10 26 -10 14 0 23 -4 19 -10 -4 -6 5
-10 19 -10 14 0 26 -4 26 -10 0 -5 9 -10 20 -10 11 0 20 -4 20 -10 0 -5 18
-10 40 -10 22 0 40 -4 40 -10 0 -5 16 -10 36 -10 21 0 33 -4 29 -10 -3 -5 1
-10 9 -10 8 0 18 -9 21 -20 6 -19 15 -20 191 -20 177 0 184 1 184 20 0 17 7
20 43 20 31 0 38 3 27 10 -11 7 -7 10 18 10 17 0 32 -4 32 -10 0 -5 9 -10 20
-10 11 0 20 5 20 10 0 6 17 10 38 10 26 0 42 6 52 20 8 12 26 20 42 20 15 0
28 5 28 10 0 6 13 10 28 10 16 0 34 8 42 20 8 11 22 20 32 20 10 0 18 5 18 10
0 6 14 10 30 10 17 0 30 5 30 10 0 6 9 10 20 10 12 0 20 7 20 18 0 18 41 42
72 42 10 0 18 6 18 13 0 20 33 47 57 47 12 0 23 8 26 20 3 14 14 20 31 20 17
0 26 5 26 15 0 9 8 19 18 22 30 12 44 33 38 57 -5 19 3 33 33 65 21 22 41 37
45 34 3 -4 6 1 6 11 0 9 5 14 10 11 6 -3 10 -1 10 5 0 7 14 25 30 40 17 15 30
32 30 37 0 5 9 15 20 23 11 8 20 23 20 33 0 10 5 15 10 12 6 -4 10 5 10 19 0
19 5 26 20 26 18 0 20 7 20 60 0 53 2 60 20 60 18 0 20 7 20 70 0 40 4 70 10
70 6 0 10 28 10 65 0 51 3 65 15 66 8 1 21 2 28 3 7 0 13 19 15 43 2 24 7 43
13 43 5 0 9 22 9 48 0 36 5 51 20 62 14 10 20 26 20 56 0 28 6 46 20 59 16 14
20 31 20 81 0 35 4 66 10 69 6 3 10 25 10 49 0 30 6 48 20 61 15 14 20 31 20
72 0 29 5 53 10 53 6 0 10 23 10 50 0 28 5 50 10 50 6 0 10 9 10 20 0 11 5 20
10 20 6 0 10 27 10 60 0 52 2 60 19 60 17 0 20 12 26 145 7 133 9 145 26 145
17 0 19 8 19 80 0 47 4 80 10 80 6 0 10 33 10 80 0 47 4 80 10 80 6 0 10 9 10
20 0 11 3 20 6 20 14 0 34 -31 34 -54 0 -14 5 -26 10 -26 6 0 10 -22 10 -48 0
-36 5 -51 20 -62 12 -8 20 -26 20 -42 0 -15 5 -28 10 -28 6 0 10 -22 10 -50 0
-43 3 -50 20 -50 17 0 20 -7 20 -45 0 -38 3 -45 20 -45 18 0 20 -7 20 -60 0
-33 4 -60 10 -60 6 0 10 -30 10 -70 0 -63 2 -70 20 -70 18 0 20 -7 20 -80 0
-47 4 -80 10 -80 6 0 10 -43 10 -108 l0 -107 31 -14 30 -13 -5 -77 c-4 -42 -5
-101 -4 -131 3 -76 0 -129 -11 -245 -16 -156 -22 -199 -32 -209 -5 -6 -9 -36
-9 -67 0 -32 -4 -61 -10 -64 -5 -3 -10 -21 -10 -40 0 -19 -4 -36 -9 -39 -8 -6
-12 -24 -27 -128 -3 -24 -10 -47 -15 -52 -5 -6 -9 -17 -9 -26 0 -27 -24 -69
-42 -74 -13 -3 -18 -14 -18 -43 0 -27 -6 -43 -20 -53 -14 -10 -20 -26 -20 -52
0 -31 -4 -38 -20 -38 -16 0 -20 -7 -20 -34 0 -19 5 -38 10 -41 12 -7 10 -65
-2 -65 -4 0 -8 -12 -8 -26 0 -14 -7 -32 -15 -41 -8 -8 -13 -19 -10 -24 4 -5 1
-9 -4 -9 -6 0 -11 -13 -11 -30 0 -16 -4 -30 -10 -30 -5 0 -10 -9 -10 -20 0
-15 -7 -20 -25 -20 -20 0 -27 -6 -31 -30 -4 -16 -13 -30 -20 -30 -10 0 -14
-14 -14 -50 0 -27 -4 -50 -10 -50 -5 0 -10 -12 -10 -26 0 -17 -6 -28 -20 -31
-20 -5 -29 -43 -10 -43 19 0 10 -31 -40 -126 -28 -53 -50 -102 -50 -110 0 -8
-4 -14 -9 -14 -5 0 -17 -19 -27 -42 -10 -24 -20 -46 -22 -50 -2 -5 5 -8 16 -8
11 0 22 4 24 8 2 5 32 28 68 52 36 24 67 47 68 52 2 4 10 8 17 8 7 0 15 4 17
8 5 14 96 72 111 72 19 0 72 27 87 45 7 8 27 17 46 21 24 4 34 12 34 25 0 12
7 19 20 19 11 0 20 5 20 10 0 6 9 10 20 10 13 0 20 7 20 20 0 13 7 20 20 20
11 0 20 5 20 10 0 6 14 10 30 10 23 0 30 4 30 20 0 13 7 20 20 20 11 0 20 5
20 10 0 6 9 10 20 10 13 0 20 7 20 20 0 13 7 20 20 20 11 0 20 5 20 10 0 6 9
10 20 10 13 0 20 7 20 20 0 13 7 20 20 20 13 0 20 7 20 20 0 11 7 20 16 20 8
0 12 5 9 10 -3 6 3 10 14 10 12 0 21 5 21 10 0 6 7 10 16 10 8 0 12 5 9 10 -3
6 3 10 15 10 12 0 18 5 15 10 -3 6 3 10 14 10 12 0 21 5 21 10 0 6 7 10 16 10
8 0 12 5 9 10 -3 6 1 10 9 10 9 0 16 5 16 10 0 6 9 10 21 10 11 0 17 4 14 10
-3 5 1 10 9 10 9 0 16 5 16 10 0 6 7 10 16 10 8 0 12 5 9 10 -3 6 3 10 14 10
12 0 21 5 21 10 0 6 6 10 13 10 7 0 19 9 27 20 8 11 22 20 32 20 10 0 18 5 18
10 0 6 12 10 28 10 42 0 72 11 72 26 0 8 18 22 40 31 25 11 40 24 40 35 0 11
8 18 20 18 11 0 20 5 20 10 0 6 3 9 8 9 32 -5 52 3 52 21 0 13 7 20 20 20 19
0 20 7 20 160 0 153 -1 160 -20 160 -16 0 -20 7 -20 31 0 17 -4 28 -10 24 -6
-4 -10 15 -10 49 0 31 -4 56 -10 56 -5 0 -10 18 -10 40 0 22 5 40 10 40 6 0
10 33 10 80 0 73 -2 80 -20 80 -14 0 -20 7 -20 21 0 11 -5 17 -10 14 -6 -4
-10 8 -10 30 0 22 -4 34 -10 30 -5 -3 -10 1 -10 9 0 9 5 16 10 16 6 0 10 9 10
20 0 11 -4 20 -10 20 -6 0 -10 27 -10 60 0 33 -3 60 -7 60 -5 0 -6 24 -5 54 3
45 0 57 -18 74 -16 15 -21 30 -19 59 1 21 -3 49 -10 62 -7 13 -10 36 -7 52 4
22 0 32 -17 44 -16 11 -21 23 -18 50 1 21 -2 35 -9 35 -6 0 -8 5 -5 10 3 6 -3
10 -13 10 -17 0 -19 5 -15 38 4 26 0 43 -10 53 -9 10 -13 26 -10 42 3 17 1 27
-6 27 -7 0 -9 5 -6 10 3 6 -3 10 -13 10 -18 0 -19 5 -15 39 5 33 2 42 -16 53
-22 13 -29 48 -10 48 7 0 -1 10 -17 22 -45 34 -64 59 -64 82 0 12 -10 40 -22
63 -20 38 -21 44 -8 69 12 21 12 28 3 31 -7 3 -13 18 -13 34 0 25 3 28 23 25
12 -3 28 -5 35 -5 6 -1 12 -8 12 -16 0 -8 3 -15 8 -15 4 0 18 -17 32 -37 14
-21 39 -52 55 -70 70 -73 85 -95 85 -118 0 -15 10 -31 25 -41 14 -9 28 -27 31
-40 3 -13 10 -24 15 -24 5 0 14 -11 19 -24 5 -13 18 -27 29 -31 12 -3 21 -15
21 -26 0 -11 7 -19 16 -19 20 0 44 -24 44 -44 0 -9 7 -16 16 -16 18 0 44 -23
44 -40 0 -15 25 -40 40 -40 7 0 25 -13 40 -30 15 -16 33 -30 40 -30 15 0 40
-25 40 -42 0 -13 43 -38 66 -38 6 0 14 -8 16 -18 5 -17 21 -26 151 -85 36 -17
62 -36 69 -52 6 -14 18 -25 27 -25 9 0 22 -9 29 -20 7 -11 21 -20 32 -20 11 0
20 -4 20 -10 0 -5 18 -10 40 -10 28 0 40 -4 40 -14 0 -19 28 -27 77 -25 48 3
113 -18 113 -36 0 -25 37 -35 134 -35 66 0 96 -4 99 -12 4 -10 6 -10 6 0 1 9
31 12 115 12 109 0 114 1 109 20 -5 17 0 20 26 20 34 0 111 21 111 31 0 12 59
67 79 74 12 3 21 11 21 16 0 5 6 9 13 9 7 0 31 16 53 36 21 20 55 48 74 63 19
14 45 36 57 48 12 12 32 24 43 28 14 4 20 15 20 36 0 16 5 29 10 29 6 0 10 9
10 20 0 11 5 20 10 20 6 0 10 9 10 19 0 11 4 21 9 23 5 2 11 10 13 18 2 8 11
22 21 31 9 9 17 26 17 38 0 13 7 29 15 38 9 8 19 28 22 44 3 16 9 29 14 29 5
0 9 9 9 20 0 11 5 29 10 40 6 11 15 29 20 40 6 11 10 33 10 49 0 15 6 46 14
67 12 36 29 136 26 158 -1 5 4 12 12 17 23 14 51 379 29 379 -7 0 -11 42 -11
120 0 73 -4 120 -10 120 -6 0 -10 30 -10 70 0 40 -4 70 -10 70 -5 0 -10 9 -10
19 0 11 -4 21 -9 23 -4 2 -12 29 -15 60 -7 57 -7 58 18 58 14 0 28 4 31 10 3
6 17 10 29 10 15 0 26 7 29 20 3 13 14 20 30 20 14 0 29 5 32 11 4 6 13 8 21
5 7 -3 26 5 41 17 16 12 42 29 58 37 17 8 36 21 43 28 7 6 18 12 23 12 5 0 9
9 9 20 0 13 7 20 19 20 11 0 22 6 25 13 5 9 7 9 12 0 3 -7 19 -13 35 -13 22 0
29 5 29 20 0 13 7 20 20 20 11 0 20 5 20 10 0 6 14 10 30 10 23 0 30 4 30 20
0 11 7 20 15 20 8 0 15 5 15 10 0 6 16 10 35 10 28 0 35 4 35 20 0 14 7 20 21
20 11 0 17 5 14 10 -4 6 5 10 20 10 15 0 24 4 20 10 -3 6 1 10 10 10 9 0 13 5
10 10 -3 6 1 10 10 10 9 0 13 5 10 10 -4 6 5 10 20 10 15 0 24 4 20 10 -3 6 2
10 11 10 10 0 14 3 11 7 -9 8 24 32 46 33 9 0 17 4 17 8 0 16 37 52 54 52 9 0
16 7 16 15 0 9 8 19 18 22 9 4 24 15 33 25 9 10 24 18 33 18 9 0 16 8 16 20 0
11 5 20 10 20 6 0 10 7 10 16 0 9 28 44 63 79 73 73 103 107 137 155 13 19 30
41 37 48 6 6 15 21 18 32 3 11 11 20 16 20 5 0 9 6 9 13 0 7 9 23 20 35 11 12
20 28 20 37 0 8 5 15 10 15 6 0 10 8 10 18 0 10 9 24 20 32 11 8 20 24 20 36
0 11 9 29 20 39 11 10 20 26 20 37 0 10 5 18 10 18 6 0 10 40 10 100 0 60 4
100 10 100 6 0 10 52 10 135 0 83 -4 135 -10 135 -5 0 -10 18 -10 40 0 22 -4
40 -10 40 -5 0 -10 18 -10 40 0 33 -3 40 -20 40 -16 0 -20 7 -20 30 0 23 -4
30 -20 30 -13 0 -20 7 -20 20 0 11 -4 20 -10 20 -5 0 -10 14 -10 30 0 23 -4
30 -20 30 -13 0 -20 7 -20 20 0 12 -7 20 -16 20 -23 0 -44 25 -44 54 0 22 -4
26 -30 26 -27 0 -30 3 -30 30 0 21 -5 30 -16 30 -8 0 -33 18 -54 40 -21 22
-46 40 -54 40 -9 0 -16 8 -16 20 0 13 -7 20 -18 20 -10 0 -24 9 -32 20 -8 11
-26 20 -40 20 -14 0 -32 9 -40 20 -13 18 -26 20 -137 20 -75 0 -123 4 -123 10
0 6 -53 10 -138 10 -126 0 -139 2 -152 20 -14 19 -26 20 -202 20 -119 0 -188
4 -188 10 0 6 -68 10 -185 10 -178 0 -185 1 -185 20 0 19 -7 20 -120 20 -111
0 -120 -1 -120 -19 0 -25 -69 -36 -78 -12 -10 28 -25 31 -159 31 -77 0 -134 4
-138 10 -4 6 -155 10 -421 10 l-415 0 18 24 c10 13 33 30 51 37 17 7 32 16 32
21 0 4 8 8 18 8 10 0 22 4 28 9 19 19 102 60 108 54 3 -4 6 -2 6 4 0 6 14 16
30 23 17 7 30 16 30 21 0 5 9 9 20 9 11 0 20 5 20 10 0 6 9 10 20 10 11 0 20
4 20 8 0 13 136 75 151 70 8 -3 34 6 58 19 24 12 49 23 56 23 6 0 21 12 34 26
12 14 29 23 37 20 8 -3 14 -1 14 4 0 6 7 10 15 10 8 0 20 9 27 20 7 11 18 20
25 20 6 0 13 5 15 11 2 6 16 12 31 12 16 1 29 9 33 20 3 9 11 17 19 17 7 0 15
5 17 11 2 6 16 12 31 12 16 1 29 9 33 20 3 9 12 17 20 17 8 0 14 5 14 10 0 6
8 10 18 10 9 0 25 14 34 30 9 17 24 30 33 30 8 0 15 4 15 9 0 5 14 14 30 21
17 7 30 16 30 21 0 5 5 9 11 9 5 0 37 18 69 40 32 22 64 40 69 40 6 0 11 3 11
8 0 12 53 32 87 32 18 0 33 5 33 10 0 6 9 10 20 10 13 0 20 7 20 20 0 13 7 20
20 20 11 0 20 5 20 10 0 6 14 10 30 10 18 0 30 5 30 13 0 8 18 22 40 32 22 10
40 24 40 32 0 7 5 13 10 13 6 0 10 7 10 16 0 16 13 30 116 121 110 96 143 130
137 137 -3 3 1 6 10 6 8 0 18 -6 20 -12 4 -10 6 -10 6 0 1 6 7 12 15 12 7 0
16 14 20 30 3 18 12 30 21 30 9 0 13 5 10 10 -3 6 -1 10 4 10 6 0 11 8 11 18
0 10 9 24 20 32 11 8 20 22 20 32 0 11 7 18 20 18 16 0 20 7 20 30 0 17 5 30
10 30 6 0 10 11 10 24 0 16 7 27 20 31 17 5 20 15 20 61 0 30 5 54 10 54 6 0
10 40 11 98 1 66 4 87 9 67 l8 -30 1 33 c0 17 -3 32 -9 32 -5 0 -10 7 -10 15
0 8 -4 15 -10 15 -5 0 -10 20 -10 44 0 26 -5 47 -12 50 -10 5 -10 7 0 12 6 3
12 20 13 37 0 27 2 29 9 12 8 -18 9 -17 9 8 1 21 -4 27 -19 27 -15 0 -20 7
-20 28 0 16 -8 34 -20 42 -11 8 -20 22 -20 32 0 10 -4 18 -10 18 -5 0 -10 14
-10 30 0 21 -5 30 -16 30 -19 0 -44 24 -44 42 0 8 -9 20 -20 28 -11 8 -20 21
-20 30 0 8 -13 21 -30 28 -18 8 -30 21 -30 33 0 12 -7 19 -20 19 -11 0 -20 5
-20 10 0 6 -9 10 -20 10 -11 0 -20 5 -20 10 0 6 -11 10 -25 10 -14 0 -25 5
-25 10 0 6 -5 10 -10 10 -6 0 -20 9 -32 20 -12 11 -28 20 -35 20 -7 0 -13 5
-13 10 0 6 -6 10 -13 10 -7 0 -19 9 -27 20 -8 11 -22 20 -32 20 -10 0 -18 7
-18 16 0 9 -9 18 -20 21 -11 3 -20 9 -20 14 0 5 -8 9 -19 9 -10 0 -21 9 -24
20 -4 14 -14 20 -34 20 -15 0 -53 9 -82 20 -30 11 -58 17 -62 14 -14 -8 -59 8
-59 21 0 15 -22 25 -56 25 -14 0 -24 6 -24 14 0 18 -22 26 -75 26 -24 0 -47 5
-50 10 -3 6 -28 10 -55 10 -39 0 -52 4 -60 20 -9 17 -21 20 -88 20 -43 0 -83
5 -89 11 -11 11 -133 18 -133 8 0 -16 -33 -18 -53 -4 -17 12 -56 15 -184 15
-138 0 -163 2 -163 15 0 8 -4 15 -10 15 -5 0 -10 18 -10 39 0 31 -4 41 -20 46
-14 4 -20 15 -20 36 0 16 -4 29 -10 29 -5 0 -10 22 -10 48 0 36 -5 51 -20 62
-12 8 -20 26 -20 42 0 19 -5 28 -16 28 -8 0 -12 5 -9 10 3 6 0 10 -8 10 -13 0
-51 73 -83 160 -8 19 -11 51 -8 71 5 31 3 37 -15 42 -14 3 -21 13 -21 30 0 14
-7 28 -16 31 -11 4 -15 14 -12 31 4 17 1 25 -9 25 -8 0 -17 9 -20 20 -3 11
-10 20 -15 20 -5 0 -17 17 -26 38 -16 36 -19 44 -21 70 0 6 -8 12 -16 12 -8 0
-15 8 -15 18 0 10 -9 24 -20 32 -11 8 -20 19 -20 24 0 10 -39 46 -52 46 -4 0
-8 7 -8 15 0 8 -4 15 -10 15 -5 0 -10 12 -10 26 0 14 -4 23 -8 20 -5 -3 -16 6
-26 20 -11 13 -25 24 -32 24 -8 0 -14 7 -14 16 0 20 -24 44 -44 44 -9 0 -16 8
-16 20 0 13 -7 20 -20 20 -11 0 -25 9 -32 20 -7 11 -21 20 -30 20 -10 0 -18 6
-18 13 0 14 -40 33 -88 43 -17 4 -32 10 -32 15 0 5 -9 9 -20 9 -11 0 -20 5
-20 10 0 6 -6 10 -12 10 -7 0 -24 9 -38 20 -14 11 -33 20 -42 20 -10 0 -18 5
-18 10 0 6 -10 10 -23 10 -13 0 -27 3 -31 7 -10 11 -79 33 -103 33 -12 0 -24
4 -27 9 -8 12 -75 23 -271 44 -22 2 -85 0 -140 -5z m1272 -4510 c-3 -8 -6 -5
-6 6 -1 11 2 17 5 13 3 -3 4 -12 1 -19z m-737 -3442 c0 -3 -4 -8 -10 -11 -5
-3 -10 -1 -10 4 0 6 5 11 10 11 6 0 10 -2 10 -4z m20 -40 c0 -11 -19 -15 -25
-6 -3 5 1 10 9 10 9 0 16 -2 16 -4z"/>
</g>
</svg>
