<!--?xml version="1.0" encoding="utf-8"?-->
<!-- Generator: Adobe Illustrator 22.1.0, SVG Export Plug-In . SVG Version: 6.00 Build 0)  -->
<svg version="1.1" id="_x37_" xmlns="http://www.w3.org/2000/svg" xmlns:xlink="http://www.w3.org/1999/xlink" x="0px" y="0px" viewBox="0 0 788.2 800" style="enable-background:new 0 0 788.2 800;" xml:space="preserve">
<style type="text/css">
	.st0{fill:#389ACE;}
</style>
<g>
	<path class="st0" d="M282,701.3C122.6,660.7,67.3,574.7,31.3,473.7C-20.5,328.7,4.5,158,79,51.6C91-1.1,131.6-4.1,137.6,14
		c6,18-16.5,33.1-55.6,51.1c-27.1,30.1-58.3,141-45.1,111.3c24.1-54.1,80.6-17.5,39.1,4.5c-25.6,13.5-40.6,15-49.6,21.1
		c-9,6-18,88.7-12,112.8c18-79.7,64.7-39.1,37.6-12c-27.1,27.1-37.6,40.6-37.6,40.6s4.5,67.7,27.1,124.8c9-84.2,59.8-51.2,43.6-16.5
		c-10.5,22.6-36.1,28.6-36.1,28.6s40.6,105.3,73.7,120.3c-6-75.2,38.1-46.5,25.6-7.5c-15,46.6,40.6,67.7,185,109.8
		C477.5,744.9,489.5,787,489.5,787l-18,9C471.5,796,419.2,736.2,282,701.3z"></path>
	<path class="st0" d="M506.2,701.3C665.6,660.7,720.9,574.7,757,473.7c51.8-145,26.7-315.7-47.7-422.1c-12-52.6-52.6-55.6-58.6-37.6
		c-6,18,16.5,33.1,55.6,51.1c27.1,30.1,58.3,141,45.1,111.3c-24.1-54.1-80.6-17.5-39.1,4.5c25.6,13.5,40.6,15,49.6,21.1
		c9,6,18,88.7,12,112.8c-18-79.7-64.7-39.1-37.6-12c27.1,27.1,37.6,40.6,37.6,40.6s-4.5,67.7-27.1,124.8
		c-9-84.2-59.8-51.2-43.6-16.5c10.5,22.6,36.1,28.6,36.1,28.6s-40.6,105.3-73.7,120.3c6-75.2-38.1-46.5-25.6-7.5
		c15,46.6-40.6,67.7-185,109.8C310.7,744.9,298.7,787,298.7,787l18,9C316.7,796,369,736.2,506.2,701.3z"></path>
</g>
</svg>
