<?xml version="1.0" standalone="no"?>
<!DOCTYPE svg PUBLIC "-//W3C//DTD SVG 20010904//EN"
 "http://www.w3.org/TR/2001/REC-SVG-20010904/DTD/svg10.dtd">
<svg version="1.0" id = "samurai" xmlns="http://www.w3.org/2000/svg"
 width="1222.000000pt" height="1280.000000pt" viewBox="0 0 1222.000000 1280.000000"
 preserveAspectRatio="xMidYMid meet">
<g transform="translate(0.000000,1280.000000) scale(0.100000,-0.100000)"
fill="#000000" stroke="none">
<path d="M3296 12652 c-42 -104 -49 -106 -82 -22 -15 38 -29 68 -31 66 -2 -2
-8 -32 -13 -66 -5 -35 -13 -67 -18 -72 -5 -5 -29 7 -56 28 -26 20 -50 33 -53
30 -4 -3 1 -31 11 -62 24 -75 13 -84 -53 -44 -29 18 -54 30 -56 28 -3 -2 9
-24 26 -47 19 -24 28 -46 23 -51 -5 -5 -47 -1 -98 11 -49 11 -93 18 -98 17 -5
-2 15 -21 46 -42 31 -21 56 -42 56 -46 0 -13 -28 -20 -78 -21 -26 0 -65 -4
-87 -8 -38 -7 -36 -8 48 -21 123 -19 129 -32 26 -56 -98 -23 -96 -34 8 -34
105 0 332 -27 350 -42 12 -10 68 -166 62 -173 -2 -2 -40 -41 -84 -87 -140
-144 -258 -314 -351 -504 -155 -319 -220 -635 -183 -888 l11 -76 -67 -157
c-37 -87 -78 -176 -90 -199 -13 -22 -36 -87 -50 -145 -20 -81 -38 -124 -81
-195 -286 -475 -422 -1292 -297 -1794 24 -97 77 -205 116 -232 49 -35 144 -33
225 6 34 16 65 27 68 23 8 -7 -13 -538 -22 -560 -3 -10 -1729 -504 -2367 -678
-20 -5 -37 -15 -37 -21 0 -6 28 -38 63 -72 103 -101 266 -172 417 -182 74 -4
90 0 970 250 518 146 899 250 905 245 9 -9 1 -46 -76 -319 -22 -80 -134 -516
-250 -970 -233 -914 -314 -1221 -418 -1570 -238 -801 -372 -1119 -806 -1904
-97 -176 -179 -325 -182 -332 -3 -9 5 -10 34 -4 67 15 334 49 446 56 l107 7 0
-29 c-1 -43 -35 -191 -66 -280 -86 -252 -177 -410 -518 -899 -68 -99 -145
-214 -171 -256 -45 -75 -46 -76 -34 -127 18 -85 25 -89 182 -113 148 -22 188
-22 517 0 268 18 294 22 298 47 2 11 26 38 53 60 58 45 228 255 277 341 18 32
39 65 45 75 7 9 107 65 222 126 519 270 627 324 645 319 10 -3 40 -1 67 5 79
15 249 10 393 -12 181 -27 233 -26 284 4 31 18 88 31 237 55 229 36 247 37
229 16 -16 -20 1 -20 123 0 132 21 330 43 344 38 6 -3 17 -18 24 -35 9 -23 17
-29 33 -25 154 34 357 69 370 64 13 -5 15 -15 10 -47 -8 -48 -15 -48 139 -15
154 33 161 32 186 -9 36 -57 35 -83 -3 -217 -20 -70 -36 -148 -36 -176 l0 -51
106 -58 c103 -54 109 -56 150 -47 39 9 53 7 121 -21 l78 -31 5 -45 5 -45 129
-69 128 -69 262 78 c145 43 267 84 274 93 15 20 16 106 1 135 -32 62 -71 86
-311 188 -131 55 -238 105 -238 109 0 21 104 247 120 260 10 8 51 56 92 105
41 50 143 167 227 260 207 230 260 298 414 525 236 350 480 660 930 1188 229
268 257 297 423 437 98 83 188 158 200 168 22 17 25 17 81 -12 32 -16 94 -53
138 -81 95 -60 155 -80 246 -80 l67 0 243 158 c134 87 320 211 413 276 l169
118 129 21 129 20 29 -34 c28 -34 28 -34 112 -33 90 1 195 27 280 70 26 13 52
24 57 24 5 0 15 -19 23 -43 12 -40 15 -42 55 -45 27 -2 64 6 105 22 35 13 90
27 123 31 33 4 74 13 90 19 17 7 53 16 82 20 28 3 77 15 109 26 31 11 69 20
85 20 65 0 281 90 359 149 19 15 102 31 365 71 385 59 415 68 490 152 97 108
73 110 -426 33 l-404 -63 -41 24 c-37 22 -53 24 -160 24 -101 1 -165 9 -432
59 -235 43 -315 62 -325 75 -9 12 -70 27 -232 56 -245 44 -280 54 -415 118
-136 63 -294 129 -339 142 -35 9 -39 14 -44 48 -3 20 -8 46 -11 57 -6 17 11
36 96 108 86 74 107 87 128 82 47 -11 168 -18 212 -11 27 4 101 38 190 86 80
43 223 111 319 150 96 39 251 111 344 159 94 48 186 93 205 101 19 7 109 58
198 112 90 54 173 98 183 98 13 0 19 -7 19 -21 0 -19 4 -20 48 -13 64 9 170
58 210 97 38 36 72 96 72 127 0 64 -67 116 -191 149 -133 36 -227 45 -479 45
-135 1 -251 5 -257 9 -31 19 -10 44 84 102 53 33 98 66 101 73 2 7 -2 10 -10
7 -7 -3 -26 -1 -43 4 -23 6 -40 3 -77 -15 -60 -31 -72 -30 -66 1 7 34 -10 31
-44 -7 l-28 -33 -23 28 c-27 32 -37 34 -37 9 0 -10 -6 -26 -13 -37 -13 -17
-16 -17 -63 -1 -47 16 -49 16 -64 -4 -14 -19 -22 -20 -81 -14 -56 5 -67 4 -72
-10 -4 -11 -18 -16 -43 -16 -31 0 -36 -3 -31 -19 6 -24 -10 -31 -69 -31 -24 0
-44 -4 -44 -10 0 -5 4 -10 9 -10 49 0 308 -33 316 -41 6 -6 4 -19 -7 -36 -13
-23 -45 -37 -175 -83 -446 -158 -788 -344 -967 -525 -80 -80 -87 -85 -421
-265 -186 -101 -384 -211 -440 -244 -55 -34 -129 -75 -165 -90 -614 -268
-1428 -864 -1408 -1032 5 -42 45 -50 160 -31 51 9 97 12 101 8 4 -4 -66 -67
-156 -139 l-163 -131 -915 -142 c-502 -78 -933 -144 -956 -146 -52 -7 -47 -18
-108 226 -138 552 -260 1155 -425 2109 l-61 354 3 313 c2 172 6 316 10 320 10
11 171 -87 358 -218 184 -129 273 -170 389 -179 l34 -3 33 145 c52 227 110
519 139 710 15 96 31 185 36 197 8 22 17 25 187 72 l73 20 61 -64 c70 -74 125
-105 189 -105 103 0 189 56 224 145 9 25 20 45 25 45 4 0 27 -26 51 -57 123
-163 152 -175 231 -93 26 28 56 50 67 50 45 0 84 15 108 40 18 19 41 30 72 35
33 5 53 15 76 41 23 25 40 34 62 34 19 0 50 13 79 33 63 44 135 172 138 245
l1 47 270 77 c390 110 372 104 391 140 51 98 -39 338 -126 338 -11 0 -179 -45
-375 -100 -195 -55 -364 -100 -375 -100 -11 0 -41 16 -67 36 -76 59 -105 67
-233 70 l-115 2 -450 141 c-247 78 -453 147 -456 153 -4 7 -6 15 -3 20 8 12
-23 23 -331 118 -165 51 -331 108 -370 127 -38 20 -174 95 -300 168 -221 128
-521 285 -543 285 -6 0 -25 26 -43 58 -18 31 -60 85 -92 119 l-60 63 5 159 c3
87 8 163 12 169 4 7 32 -1 79 -23 127 -61 205 -55 261 18 15 19 44 88 66 153
34 99 53 137 119 234 160 235 256 425 337 668 44 132 127 297 145 287 4 -3 15
-26 25 -51 13 -34 21 -43 33 -38 9 4 25 9 36 11 12 3 33 24 48 47 67 106 10
303 -128 442 -138 138 -347 232 -646 291 -59 11 -148 17 -302 18 l-218 2 -60
59 c-33 33 -59 67 -59 79 0 25 52 113 121 203 57 75 53 83 -30 58 -29 -8 -53
-11 -56 -6 -3 5 1 33 10 62 22 75 19 79 -20 20 -20 -28 -40 -52 -45 -52 -5 0
-10 35 -12 78 l-3 77 -29 -73z m2708 -4283 c14 -11 26 -26 26 -33 0 -13 -147
-76 -177 -76 -8 0 -30 12 -47 28 -17 15 -43 34 -56 43 -14 9 -22 20 -18 24 7
8 161 32 214 34 18 1 43 -8 58 -20z m-501 -45 c3 -3 -9 -25 -28 -49 -35 -46
-60 -111 -71 -183 -7 -46 -19 -56 -77 -67 l-37 -7 1 53 c1 89 14 217 22 225 4
4 42 13 85 20 100 15 98 15 105 8z m37 -223 c0 -6 -4 -13 -10 -16 -5 -3 -10 1
-10 9 0 9 5 16 10 16 6 0 10 -4 10 -9z m348 -368 c-4 -34 -23 -41 -38 -13 -13
25 -6 40 21 40 16 0 20 -6 17 -27z m-218 -63 c0 -23 -25 -27 -33 -6 -7 16 1
26 20 26 7 0 13 -9 13 -20z m5046 -3121 c10 -17 -9 -25 -113 -43 -95 -17 -96
-17 -117 3 -11 11 -16 24 -12 28 18 19 231 29 242 12z m-527 -38 c10 -6 -10
-20 -70 -50 -46 -22 -104 -53 -130 -68 -31 -18 -51 -24 -65 -19 -17 7 -15 11
21 42 78 67 117 89 169 95 28 3 53 7 56 7 3 1 11 -2 19 -7z m25 -302 c-3 -5
-10 -7 -15 -3 -5 3 -7 10 -3 15 3 5 10 7 15 3 5 -3 7 -10 3 -15z m-3874 -597
c0 -5 -80 -57 -177 -117 -98 -59 -397 -245 -665 -412 -267 -166 -491 -303
-496 -303 -6 0 -18 35 -27 78 -23 105 -79 328 -109 432 -17 56 -22 88 -15 95
9 10 1392 232 1457 234 17 1 32 -3 32 -7z m-3680 -1833 c0 -7 -16 -27 -36 -46
-22 -20 -34 -39 -30 -48 4 -13 16 -11 73 11 96 37 283 86 300 79 12 -4 11 -11
-6 -41 -12 -20 -20 -39 -17 -41 3 -3 67 12 142 32 158 43 214 53 214 37 0 -22
-555 -305 -1170 -597 -217 -103 -399 -192 -405 -197 -7 -7 0 -8 20 -4 46 8
350 35 439 38 46 2 80 -1 82 -7 9 -25 -301 -203 -603 -345 -215 -101 -279
-127 -287 -119 -3 3 -24 73 -46 156 l-41 152 145 323 c221 496 224 501 250
494 12 -3 44 1 70 9 27 8 86 15 131 15 81 0 106 -5 365 -75 52 -14 130 -29
172 -32 70 -5 78 -4 83 13 4 10 13 33 20 49 8 17 24 56 35 87 19 51 24 57 53
61 18 2 35 5 40 5 4 1 7 -3 7 -9z m2880 -788 c0 -16 -5 -42 -10 -56 -8 -21
-14 -25 -33 -20 -32 10 -56 36 -59 64 -3 26 19 38 75 40 23 1 27 -3 27 -28z"/>
</g>
</svg>
